# Blender v2.90.0 OBJ File: 'object test.blend'
# www.blender.org
mtllib Edge_Side_Right.mtl
o backup_edge.003_Circle.014
v -1.999827 0.100004 -7.500294
v 2.000174 0.100004 -7.500294
v -1.499827 0.100004 -7.500294
v 1.500173 0.100004 -7.500294
v -7.499828 0.200004 -7.500293
v 2.000174 0.200004 -7.500294
v -1.999827 0.200004 -7.500294
v -1.499827 0.000004 -7.500294
v 1.500173 0.000004 -7.500294
v 4.502397 0.200004 -7.500294
v 4.502397 7.554509 -7.500294
v -7.499828 7.500004 -7.500293
v -1.999827 7.600004 -7.500294
v 2.000174 7.600004 -7.500294
v -1.499827 7.600004 -7.500294
v 1.500173 7.600004 -7.500294
v -1.499827 7.500004 -7.500294
v 1.500173 7.500004 -7.500294
v -0.065017 0.000000 0.065017
v 0.065017 0.000000 0.065017
v -0.065017 0.000000 -0.065017
v 0.065017 0.000000 -0.065017
v -0.065017 0.000000 0.325083
v 0.065017 0.000000 0.325083
v -0.065017 0.000000 -0.325083
v 0.065017 0.000000 -0.325083
v -0.325083 0.000000 0.065017
v 0.325083 0.000000 0.065017
v -0.325083 0.000000 -0.065017
v 0.325083 0.000000 -0.065017
vt 0.030802 0.761517
vt 0.022018 0.752733
vt 0.030802 0.743950
vt 0.039585 0.752733
vt 0.048368 0.726384
vt 0.057151 0.735167
vt 0.013235 0.779083
vt 0.004452 0.770300
vt 0.004452 0.735167
vt 0.013235 0.726384
vt 0.057151 0.770300
vt 0.048368 0.779083
vt 0.386552 0.019244
vt 0.911939 0.019244
vt 0.911939 0.716576
vt 0.386552 0.726129
vt 0.338789 0.009692
vt 0.386552 0.009692
vt 0.338789 0.726129
vt 0.338789 0.716576
vt 0.338789 0.000139
vt 0.052214 0.716576
vt 0.052214 0.009692
vt 0.052214 0.000139
vt 0.004452 0.009692
vt 0.052214 0.726128
vt 0.004452 0.726128
vt 0.004452 0.019244
vt 0.811637 0.735891
vt 0.807291 0.974916
vt 0.104753 0.974916
vt 0.104753 0.735891
vn 0.0000 1.0000 0.0000
vn -0.0000 0.0000 -1.0000
usemtl lights
s off
f 19/1/1 20/2/1 22/3/1 21/4/1
f 21/4/1 22/3/1 26/5/1 25/6/1
f 20/2/1 19/1/1 23/7/1 24/8/1
f 22/3/1 20/2/1 28/9/1 30/10/1
f 19/1/1 21/4/1 29/11/1 27/12/1
usemtl Alt_Concrete
f 7/13/2 5/14/2 12/15/2 13/16/2
f 3/17/2 1/18/2 7/13/2 13/16/2 15/19/2 17/20/2
f 8/21/2 3/17/2 17/20/2 18/22/2 4/23/2 9/24/2
f 2/25/2 4/23/2 18/22/2 16/26/2 14/27/2 6/28/2
f 14/29/2 11/30/2 10/31/2 6/32/2
