# Blender v2.90.0 OBJ File: 'object test.blend'
# www.blender.org
mtllib Barrier.mtl
o Cube.002_Cube.021
v -0.095542 0.000035 -0.467792
v -0.047938 0.095912 -0.467792
v -0.095542 0.000035 -0.563669
v -0.047938 0.095912 -0.563669
v 0.095542 0.000035 -0.467792
v 0.047938 0.095912 -0.467792
v 0.095542 0.000035 -0.563669
v 0.047938 0.095912 -0.563669
v -0.095542 0.047973 -0.467792
v -0.095542 0.047973 -0.563669
v 0.095542 0.047973 -0.563669
v 0.095542 0.047973 -0.467792
v -0.047938 0.661910 -0.467792
v -0.047938 0.661910 -0.563669
v 0.047938 0.661910 -0.563669
v 0.047938 0.661910 -0.467792
v -0.095542 0.000035 0.467792
v -0.047938 0.095912 0.467792
v -0.095542 0.000035 0.563669
v -0.047938 0.095912 0.563669
v 0.095542 0.000035 0.467792
v 0.047938 0.095912 0.467792
v 0.095542 0.000035 0.563669
v 0.047938 0.095912 0.563669
v -0.095542 0.047973 0.467792
v -0.095542 0.047973 0.563669
v 0.095542 0.047973 0.563669
v 0.095542 0.047973 0.467792
v -0.047938 0.661910 0.467792
v -0.047938 0.661910 0.563669
v 0.047938 0.661910 0.563669
v 0.047938 0.661910 0.467792
v -0.035385 0.113004 1.000000
v 0.035385 0.113004 1.000000
v -0.035385 0.113004 -1.000000
v 0.035385 0.113004 -1.000000
v -0.035385 0.628534 1.000000
v 0.035385 0.628534 1.000000
v -0.035385 0.628534 -1.000000
v 0.035385 0.628534 -1.000000
vt 0.606304 1.000000
vt 0.606304 0.000000
vt 0.645247 0.000000
vt 0.645247 1.000000
vt 0.567362 0.000000
vt 0.606304 0.000000
vt 0.606304 1.000000
vt 0.567362 1.000000
vt 1.000000 0.515530
vt 0.961058 0.515530
vt 0.961058 0.257765
vt 1.000000 0.257765
vt 1.000000 0.257765
vt 0.961058 0.257765
vt 0.961058 0.000000
vt 1.000000 0.000000
vt 0.283681 0.000000
vt 0.283681 1.000000
vt 0.000000 1.000000
vt 0.000000 0.000000
vt 0.567362 0.000000
vt 0.567362 1.000000
vt 0.283681 1.000000
vt 0.283681 0.000000
vt 0.855541 0.306968
vt 0.855541 0.282999
vt 0.908300 0.282999
vt 0.908300 0.306968
vt 0.750394 0.306968
vt 0.776589 0.282999
vt 0.829347 0.282999
vt 0.855541 0.306968
vt 0.961058 0.023969
vt 0.961058 0.047938
vt 0.908300 0.047938
vt 0.908300 0.023969
vt 0.645247 0.637906
vt 0.671441 0.613937
vt 0.724199 0.613937
vt 0.750394 0.637906
vt 0.698005 0.757417
vt 0.698005 0.661875
vt 0.750763 0.661875
vt 0.750763 0.757416
vt 0.961058 0.330937
vt 0.908300 0.330937
vt 0.645247 0.661875
vt 0.750394 0.661875
vt 0.961058 0.000000
vt 0.908300 0.000000
vt 0.750394 0.330937
vt 0.855541 0.330937
vt 0.855541 0.330938
vt 0.908300 0.330938
vt 0.803521 0.709813
vt 0.750763 0.709813
vt 0.750763 0.661875
vt 0.803521 0.661875
vt 0.855541 0.000000
vt 0.908299 0.000000
vt 0.671441 0.330937
vt 0.724199 0.330937
vt 0.776589 0.000000
vt 0.829347 0.000000
vt 0.908300 0.637906
vt 0.855541 0.637906
vt 0.855541 0.613937
vt 0.908300 0.613937
vt 0.750394 0.306968
vt 0.645247 0.306968
vt 0.671441 0.282999
vt 0.724199 0.282999
vt 0.908300 0.354907
vt 0.961058 0.354907
vt 0.961058 0.378876
vt 0.908300 0.378876
vt 0.855541 0.637906
vt 0.750394 0.637906
vt 0.776589 0.613937
vt 0.829347 0.613937
vt 0.698005 0.757416
vt 0.645247 0.757417
vt 0.645247 0.661875
vt 0.698005 0.661875
vt 0.961058 0.661875
vt 0.908300 0.661875
vt 0.855541 0.661875
vt 0.750394 0.661875
vt 0.908300 0.330938
vt 0.961058 0.330938
vt 0.750394 0.330937
vt 0.645247 0.330937
vt 0.908300 0.661875
vt 0.855541 0.661875
vt 0.803521 0.709813
vt 0.803521 0.757752
vt 0.750763 0.757752
vt 0.750763 0.709813
vt 0.855541 0.330937
vt 0.908299 0.330937
vt 0.776588 0.330937
vt 0.829347 0.330937
vt 0.671441 0.000000
vt 0.724199 0.000000
vn 0.0000 -1.0000 0.0000
vn 0.0000 1.0000 0.0000
vn 0.0000 0.0000 -1.0000
vn 0.0000 0.0000 1.0000
vn 1.0000 0.0000 0.0000
vn -1.0000 0.0000 0.0000
vn -0.7096 0.7046 0.0000
vn 0.7096 0.7046 0.0000
usemtl brick.005
s off
f 33/1/1 35/2/1 36/3/1 34/4/1
f 37/5/2 38/6/2 40/7/2 39/8/2
f 36/9/3 35/10/3 39/11/3 40/12/3
f 33/13/4 34/14/4 38/15/4 37/16/4
f 34/17/5 36/18/5 40/19/5 38/20/5
f 35/21/6 33/22/6 37/23/6 39/24/6
usemtl Metal.001
f 9/25/7 2/26/7 4/27/7 10/28/7
f 10/29/3 4/30/3 8/31/3 11/32/3
f 11/33/8 8/34/8 6/35/8 12/36/8
f 12/37/4 6/38/4 2/39/4 9/40/4
f 3/41/1 7/42/1 5/43/1 1/44/1
f 6/35/5 8/34/5 15/45/5 16/46/5
f 5/47/4 12/37/4 9/40/4 1/48/4
f 7/49/5 11/33/5 12/36/5 5/50/5
f 3/51/3 10/29/3 11/32/3 7/52/3
f 1/53/6 9/25/6 10/28/6 3/54/6
f 15/55/2 14/56/2 13/57/2 16/58/2
f 4/27/6 2/26/6 13/59/6 14/60/6
f 2/39/4 6/38/4 16/61/4 13/62/4
f 8/31/3 4/30/3 14/63/3 15/64/3
f 25/65/7 26/66/7 20/67/7 18/68/7
f 26/69/4 27/70/4 24/71/4 20/72/4
f 27/73/8 28/74/8 22/75/8 24/76/8
f 28/77/3 25/78/3 18/79/3 22/80/3
f 19/81/1 17/82/1 21/83/1 23/84/1
f 22/75/5 32/85/5 31/86/5 24/76/5
f 21/87/3 17/88/3 25/78/3 28/77/3
f 23/89/5 21/90/5 28/74/5 27/73/5
f 19/91/4 23/92/4 27/70/4 26/69/4
f 17/93/6 19/94/6 26/66/6 25/65/6
f 31/95/2 32/96/2 29/97/2 30/98/2
f 20/67/6 30/99/6 29/100/6 18/68/6
f 18/79/3 29/101/3 32/102/3 22/80/3
f 24/71/4 31/103/4 30/104/4 20/72/4
