# Blender v2.90.0 OBJ File: 'enemy 3.blend'
# www.blender.org
mtllib particle4.mtl
o Particle_4_Cube.010
v 0.020276 -0.049810 -0.166430
v 0.020276 0.006157 -0.159061
v 0.020276 0.058310 -0.137459
v 0.020276 0.103095 -0.103094
v 0.020276 0.137459 -0.058310
v 0.020276 0.159062 -0.006157
v 0.020276 0.166430 0.049810
v 0.020276 0.159062 0.105777
v 0.020276 0.137459 0.157930
v 0.020276 0.103095 0.202715
v 0.020276 -0.202715 -0.103094
v 0.020276 -0.157930 -0.137459
v 0.020276 -0.105777 -0.159061
v -0.043640 -0.049810 -0.166430
v -0.043640 0.006157 -0.159061
v -0.043640 0.058310 -0.137459
v -0.043640 0.103095 -0.103094
v -0.043640 0.137459 -0.058310
v -0.043640 0.159062 -0.006157
v -0.043640 0.166430 0.049810
v -0.043640 0.159062 0.105777
v -0.043640 0.137459 0.157930
v -0.043640 0.103095 0.202715
v -0.043640 -0.202715 -0.103094
v -0.043640 -0.157930 -0.137459
v -0.043640 -0.105777 -0.159061
v -0.043640 -0.034717 -0.006517
v -0.043640 -0.049810 -0.008504
v -0.043640 -0.020653 -0.000692
v -0.043640 -0.008575 0.008576
v -0.043640 0.000692 0.020653
v -0.043640 0.006517 0.034717
v -0.043640 0.008504 0.049810
v -0.043640 0.006517 0.064903
v -0.043640 0.000692 0.078967
v -0.043640 -0.008575 0.091045
v -0.043640 -0.091045 0.008576
v -0.043640 -0.078967 -0.000692
v -0.043640 -0.064903 -0.006517
v -0.130844 -0.034717 -0.006517
v -0.130844 -0.049810 -0.008504
v -0.130844 -0.020653 -0.000692
v -0.130844 -0.008575 0.008576
v -0.130844 0.000692 0.020653
v -0.130844 0.006517 0.034717
v -0.130844 0.008504 0.049810
v -0.130844 0.006517 0.064903
v -0.130844 0.000692 0.078967
v -0.130844 -0.008575 0.091045
v -0.130844 -0.091045 0.008576
v -0.130844 -0.078967 -0.000692
v -0.130844 -0.064903 -0.006517
v 0.020276 -0.033522 -0.010979
v 0.020276 -0.049810 -0.013124
v 0.020276 -0.018343 -0.004692
v 0.020276 -0.005309 0.005309
v 0.020276 0.004692 0.018343
v 0.020276 0.010979 0.033522
v 0.020276 0.013124 0.049810
v 0.020276 0.010979 0.066099
v 0.020276 0.004692 0.081277
v 0.020276 -0.005309 0.094311
v 0.020276 -0.094311 0.005309
v 0.020276 -0.081277 -0.004692
v 0.020276 -0.066099 -0.010979
v 0.039001 -0.033522 -0.010979
v 0.039001 -0.049810 -0.013124
v 0.039001 -0.018343 -0.004692
v 0.039001 -0.005309 0.005309
v 0.039001 0.004692 0.018343
v 0.039001 0.010979 0.033522
v 0.039001 0.013124 0.049810
v 0.039001 0.010979 0.066099
v 0.039001 0.004692 0.081277
v 0.039001 -0.005309 0.094311
v 0.039001 -0.094311 0.005309
v 0.039001 -0.081277 -0.004692
v 0.039001 -0.066099 -0.010979
v 0.039001 -0.040265 0.014187
v 0.039001 -0.049810 0.012930
v 0.039001 -0.031370 0.017871
v 0.039001 -0.023732 0.023732
v 0.039001 -0.017871 0.031370
v 0.039001 -0.014186 0.040265
v 0.039001 -0.012930 0.049810
v 0.039001 -0.014186 0.059356
v 0.039001 -0.017871 0.068250
v 0.039001 -0.023732 0.075889
v 0.039001 -0.075888 0.023732
v 0.039001 -0.068250 0.017871
v 0.039001 -0.059355 0.014187
v 0.023978 -0.040265 0.014187
v 0.023978 -0.049810 0.012930
v 0.023978 -0.031370 0.017871
v 0.023978 -0.023732 0.023732
v 0.023978 -0.017871 0.031370
v 0.023978 -0.014186 0.040265
v 0.023978 -0.012930 0.049810
v 0.023978 -0.014186 0.059356
v 0.023978 -0.017871 0.068250
v 0.023978 -0.023732 0.075889
v 0.023978 -0.075888 0.023732
v 0.023978 -0.068250 0.017871
v 0.023978 -0.059355 0.014187
v 0.020276 0.077890 0.177510
v 0.020276 0.040487 -0.106589
v 0.020276 0.077890 -0.077890
v 0.020276 0.106590 -0.040487
v 0.020276 0.124631 0.003069
v 0.020276 0.130785 0.049810
v 0.020276 -0.177510 -0.077890
v 0.020276 0.124631 0.096551
v 0.020276 -0.140107 -0.106589
v 0.020276 0.106590 0.140107
v 0.020276 -0.096551 -0.124631
v 0.020276 -0.049810 -0.130785
v 0.020276 -0.003069 -0.124631
v 0.027661 0.006157 -0.159061
v 0.027661 -0.049810 -0.166430
v 0.027661 0.058310 -0.137459
v 0.027661 0.103095 -0.103094
v 0.027661 0.137459 -0.058310
v 0.027661 0.159062 -0.006157
v 0.027661 0.166430 0.049810
v 0.027661 0.159062 0.105777
v 0.027661 0.137459 0.157930
v 0.027661 0.103095 0.202715
v 0.027661 -0.202715 -0.103094
v 0.027661 -0.157930 -0.137459
v 0.027661 -0.105777 -0.159061
v 0.027661 0.077890 -0.077890
v 0.027661 0.106590 -0.040487
v 0.027661 0.124631 0.003069
v 0.027661 0.130785 0.049810
v 0.027661 -0.177510 -0.077890
v 0.027661 0.124631 0.096551
v 0.027661 -0.140107 -0.106589
v 0.027661 0.106590 0.140107
v 0.027661 -0.096551 -0.124631
v 0.027661 -0.003069 -0.124631
v 0.027661 0.077890 0.177510
v 0.027661 0.040487 -0.106589
v 0.027661 -0.049810 -0.130785
vt 0.317224 0.488597
vt 0.317224 0.573333
vt 0.317224 0.688072
vt 0.257184 0.688072
vt 0.257184 0.662174
vt 0.257184 0.576689
vt 0.253706 0.557760
vt 0.253706 0.504170
vt 0.257184 0.485241
vt 0.257184 0.399755
vt 0.257184 0.373858
vt 0.317224 0.373858
vt 0.399142 0.488597
vt 0.399142 0.573333
vt 0.678076 0.597817
vt 0.684834 0.589042
vt 0.693640 0.582309
vt 0.703894 0.578077
vt 0.714899 0.576633
vt 0.714899 0.661369
vt 0.703894 0.659925
vt 0.693639 0.655693
vt 0.684833 0.648960
vt 0.678076 0.640185
vt 0.673829 0.629967
vt 0.672380 0.619001
vt 0.673829 0.608035
vt 0.585350 0.658260
vt 0.585350 0.576633
vt 0.596450 0.576633
vt 0.596450 0.658260
vt 0.607172 0.576633
vt 0.607172 0.658260
vt 0.616784 0.576633
vt 0.616784 0.658260
vt 0.154140 0.692443
vt 0.154140 0.774070
vt 0.145433 0.774070
vt 0.145433 0.692443
vt 0.679033 0.860350
vt 0.679033 0.941977
vt 0.667989 0.941977
vt 0.667989 0.860350
vt 0.135242 0.774070
vt 0.135242 0.692443
vt 0.657033 0.941977
vt 0.657033 0.860350
vt 0.646910 0.860350
vt 0.646910 0.941977
vt 0.638311 0.941977
vt 0.638311 0.860350
vt 0.124259 0.774070
vt 0.124259 0.692443
vt 0.565016 0.658260
vt 0.565016 0.576633
vt 0.574629 0.576633
vt 0.574629 0.658260
vt 0.565016 0.445424
vt 0.650807 0.445424
vt 0.652370 0.457258
vt 0.569503 0.479383
vt 0.569503 0.411464
vt 0.652370 0.433589
vt 0.582658 0.379819
vt 0.656954 0.422561
vt 0.603584 0.352644
vt 0.664247 0.413092
vt 0.630855 0.331793
vt 0.673750 0.405825
vt 0.662613 0.572162
vt 0.684817 0.489590
vt 0.696694 0.491148
vt 0.696694 0.576633
vt 0.662613 0.318685
vt 0.684817 0.401258
vt 0.630855 0.559054
vt 0.673750 0.485022
vt 0.582658 0.511028
vt 0.656954 0.468286
vt 0.664247 0.477755
vt 0.603584 0.538203
vt 0.696694 0.314214
vt 0.696694 0.399700
vt 0.239593 0.504170
vt 0.239593 0.485241
vt 0.239593 0.576689
vt 0.239593 0.557760
vt 0.570689 0.950240
vt 0.575606 0.931956
vt 0.582566 0.932869
vt 0.582566 0.951798
vt 0.725010 0.882217
vt 0.742600 0.882217
vt 0.742600 0.894153
vt 0.725010 0.894153
vt 0.725010 0.870687
vt 0.742600 0.870687
vt 0.725010 0.860350
vt 0.742600 0.860350
vt 0.787372 0.869712
vt 0.769781 0.869712
vt 0.769781 0.860350
vt 0.787372 0.860350
vt 0.769781 0.872226
vt 0.752191 0.872226
vt 0.752191 0.860350
vt 0.769781 0.860350
vt 0.787372 0.880672
vt 0.769781 0.880672
vt 0.769781 0.884008
vt 0.752191 0.884008
vt 0.769781 0.904141
vt 0.752191 0.904141
vt 0.752191 0.894893
vt 0.769781 0.894893
vt 0.787372 0.892482
vt 0.769781 0.892483
vt 0.725010 0.905683
vt 0.742600 0.905683
vt 0.742600 0.916020
vt 0.725010 0.916020
vt 0.570689 0.861908
vt 0.575606 0.880192
vt 0.569120 0.882869
vt 0.559622 0.866476
vt 0.559622 0.945672
vt 0.569120 0.929279
vt 0.542826 0.928936
vt 0.559278 0.919471
vt 0.563551 0.925021
vt 0.550118 0.938406
vt 0.582566 0.860350
vt 0.582566 0.879279
vt 0.538242 0.917908
vt 0.556591 0.913009
vt 0.536678 0.906074
vt 0.555675 0.906074
vt 0.538242 0.894240
vt 0.556591 0.899139
vt 0.542826 0.883212
vt 0.559278 0.892676
vt 0.550119 0.873742
vt 0.563551 0.887127
vt 0.831936 0.646918
vt 0.829250 0.640455
vt 0.828334 0.633520
vt 0.829250 0.626585
vt 0.831936 0.620122
vt 0.836210 0.614573
vt 0.841779 0.610315
vt 0.848265 0.607638
vt 0.855224 0.606725
vt 0.855224 0.660315
vt 0.848265 0.659402
vt 0.841779 0.656725
vt 0.836210 0.652467
vt 0.787372 0.872362
vt 0.801484 0.872362
vt 0.801484 0.879297
vt 0.787372 0.879297
vt 0.787372 0.865899
vt 0.801484 0.865899
vt 0.787372 0.860350
vt 0.801484 0.860350
vt 0.869337 0.648100
vt 0.855224 0.648100
vt 0.855224 0.643678
vt 0.869337 0.643678
vt 0.769781 0.904594
vt 0.783894 0.904594
vt 0.783894 0.911542
vt 0.769781 0.911542
vt 0.869337 0.653775
vt 0.855224 0.653775
vt 0.769781 0.898094
vt 0.783894 0.898094
vt 0.787372 0.892694
vt 0.801484 0.892694
vt 0.801484 0.898244
vt 0.787372 0.898244
vt 0.869337 0.660315
vt 0.855224 0.660315
vt 0.769781 0.892483
vt 0.783894 0.892483
vt 0.787372 0.886232
vt 0.801484 0.886232
vt 0.250246 0.399755
vt 0.250246 0.373858
vt 0.250246 0.688072
vt 0.250246 0.662174
vt 0.867806 0.178717
vt 0.927847 0.178717
vt 0.927847 0.218333
vt 0.867806 0.218333
vt 0.927847 0.259346
vt 0.867806 0.259346
vt 0.927847 0.298962
vt 0.867806 0.298962
vt 0.927847 0.334480
vt 0.867806 0.334480
vt 0.071870 0.859372
vt 0.131910 0.859372
vt 0.131910 0.891542
vt 0.071870 0.891542
vt 0.991908 0.812587
vt 0.931867 0.812587
vt 0.931867 0.771782
vt 0.991908 0.771782
vt 0.131910 0.929200
vt 0.071870 0.929200
vt 0.931867 0.731299
vt 0.991908 0.731299
vt 0.991908 0.693896
vt 0.931867 0.693896
vt 0.931867 0.662122
vt 0.991908 0.662122
vt 0.131910 0.969779
vt 0.071870 0.969779
vt 0.867806 0.143199
vt 0.927847 0.143199
vt 0.078834 0.671395
vt 0.136408 0.572028
vt 0.146663 0.576260
vt 0.116860 0.687090
vt 0.116860 0.383582
vt 0.146663 0.494412
vt 0.136408 0.498644
vt 0.078834 0.399277
vt 0.046180 0.424244
vt 0.127602 0.505377
vt 0.120845 0.514152
vt 0.021123 0.456782
vt 0.157668 0.577704
vt 0.157668 0.692443
vt 0.116597 0.524370
vt 0.005372 0.494674
vt 0.115148 0.535336
vt 0.000000 0.535336
vt 0.116597 0.546302
vt 0.005372 0.575998
vt 0.120845 0.556520
vt 0.021123 0.613890
vt 0.127602 0.565295
vt 0.046180 0.646427
vt 0.157667 0.378229
vt 0.157667 0.492968
vt 0.860868 0.259346
vt 0.860868 0.218333
vt 0.860868 0.178717
vt 0.860868 0.143199
vt 0.721837 0.636445
vt 0.721837 0.658103
vt 0.714899 0.658103
vt 0.714899 0.636445
vt 0.998846 0.662122
vt 0.998846 0.693896
vt 0.478234 0.618726
vt 0.478234 0.652747
vt 0.471296 0.652747
vt 0.471296 0.618726
vt 0.478234 0.466637
vt 0.478234 0.500597
vt 0.471296 0.500597
vt 0.471296 0.466637
vt 0.721837 0.608657
vt 0.714899 0.608657
vt 0.478234 0.586892
vt 0.471296 0.586892
vt 0.998846 0.731299
vt 0.478234 0.432678
vt 0.471296 0.432678
vt 0.570389 0.197769
vt 0.595493 0.191066
vt 0.608648 0.222712
vt 0.586140 0.235660
vt 0.611196 0.268198
vt 0.629574 0.249886
vt 0.656845 0.270738
vt 0.643850 0.293166
vt 0.722684 0.000000
vt 0.722684 0.025898
vt 0.688603 0.030368
vt 0.681876 0.005353
vt 0.688603 0.283846
vt 0.681876 0.308861
vt 0.656845 0.043476
vt 0.643850 0.021048
vt 0.722684 0.288317
vt 0.722684 0.314214
vt 0.629574 0.064328
vt 0.611196 0.046015
vt 0.608648 0.091502
vt 0.586140 0.078553
vt 0.595493 0.123147
vt 0.570389 0.116445
vt 0.591006 0.157107
vt 0.565016 0.157107
vt 0.478234 0.373858
vt 0.478234 0.401032
vt 0.471296 0.401032
vt 0.471296 0.373858
vt 0.860868 0.298962
vt 0.860868 0.334480
vt 0.478234 0.532242
vt 0.471296 0.532242
vt 0.478234 0.559416
vt 0.471296 0.559416
vt 0.064932 0.891542
vt 0.064932 0.859372
vt 0.064932 0.929200
vt 0.721837 0.576633
vt 0.714899 0.576633
vt 0.998846 0.771782
vt 0.998846 0.812587
vt 0.064932 0.969779
vn -0.0000 -0.7071 0.7071
vn -1.0000 0.0000 0.0000
vn 0.0000 0.7934 -0.6088
vn 0.0000 0.9239 -0.3827
vn 0.0000 0.9914 -0.1305
vn 0.0000 0.9914 0.1305
vn 0.0000 -0.6088 -0.7934
vn 0.0000 0.9239 0.3827
vn 0.0000 -0.3827 -0.9239
vn 0.0000 0.1305 -0.9914
vn 0.0000 0.7934 0.6088
vn 0.0000 -0.1305 -0.9914
vn 0.0000 0.3827 -0.9239
vn 0.0000 0.6088 -0.7934
vn 1.0000 -0.0000 0.0000
vn 0.0000 -0.7933 0.6088
vn 0.0000 -0.9239 0.3827
vn 0.0000 -0.9914 0.1305
vn 0.0000 -0.9914 -0.1305
vn 0.0000 0.6088 0.7934
vn 0.0000 -0.9239 -0.3827
vn 0.0000 0.3827 0.9239
vn 0.0000 -0.1305 0.9914
vn 0.0000 -0.7934 -0.6088
vn 0.0000 0.1305 0.9914
vn 0.0000 -0.3827 0.9239
vn 0.0000 -0.6088 0.7934
vn 0.0000 -0.7934 0.6088
usemtl Robot_base
s off
f 36/1/1 37/2/1 24/3/1 11/4/1 111/5/1 63/6/1 102/7/1 101/8/1 62/9/1 105/10/1 10/11/1 23/12/1
f 36/1/1 49/13/1 50/14/1 37/2/1
f 40/15/2 41/16/2 52/17/2 51/18/2 50/19/2 49/20/2 48/21/2 47/22/2 46/23/2 45/24/2 44/25/2 43/26/2 42/27/2
f 30/28/3 43/29/3 44/30/3 31/31/3
f 31/31/4 44/30/4 45/32/4 32/33/4
f 32/33/5 45/32/5 46/34/5 33/35/5
f 33/36/6 46/37/6 47/38/6 34/39/6
f 37/40/7 50/41/7 51/42/7 38/43/7
f 34/39/8 47/38/8 48/44/8 35/45/8
f 38/43/9 51/42/9 52/46/9 39/47/9
f 28/48/10 41/49/10 40/50/10 27/51/10
f 35/45/11 48/44/11 49/52/11 36/53/11
f 39/47/12 52/46/12 41/49/12 28/48/12
f 27/54/13 40/55/13 42/56/13 29/57/13
f 29/57/14 42/56/14 43/29/14 30/28/14
f 107/58/15 56/59/15 55/60/15 106/61/15
f 108/62/15 57/63/15 56/59/15 107/58/15
f 109/64/15 58/65/15 57/63/15 108/62/15
f 110/66/15 59/67/15 58/65/15 109/64/15
f 112/68/15 60/69/15 59/67/15 110/66/15
f 113/70/15 64/71/15 63/72/15 111/73/15
f 114/74/15 61/75/15 60/69/15 112/68/15
f 115/76/15 65/77/15 64/71/15 113/70/15
f 117/78/15 53/79/15 54/80/15 116/81/15
f 105/82/15 62/83/15 61/75/15 114/74/15
f 116/81/15 54/80/15 65/77/15 115/76/15
f 106/61/15 55/60/15 53/79/15 117/78/15
usemtl Metal
f 62/9/1 101/8/1 88/84/1 75/85/1
f 102/7/1 63/6/1 76/86/1 89/87/1
f 77/88/15 90/89/15 89/90/15 76/91/15
f 57/92/3 70/93/3 69/94/3 56/95/3
f 58/96/4 71/97/4 70/93/4 57/92/4
f 59/98/5 72/99/5 71/97/5 58/96/5
f 60/100/6 73/101/6 72/102/6 59/103/6
f 64/104/7 77/105/7 76/106/7 63/107/7
f 61/108/8 74/109/8 73/101/8 60/100/8
f 65/110/9 78/111/9 77/105/9 64/104/9
f 53/112/10 66/113/10 67/114/10 54/115/10
f 62/116/11 75/117/11 74/109/11 61/108/11
f 54/115/12 67/114/12 78/111/12 65/110/12
f 55/118/13 68/119/13 66/120/13 53/121/13
f 56/95/14 69/94/14 68/119/14 55/118/14
f 74/122/15 87/123/15 86/124/15 73/125/15
f 78/126/15 91/127/15 90/89/15 77/88/15
f 66/128/15 79/129/15 80/130/15 67/131/15
f 75/132/15 88/133/15 87/123/15 74/122/15
f 67/131/15 80/130/15 91/127/15 78/126/15
f 68/134/15 81/135/15 79/129/15 66/128/15
f 69/136/15 82/137/15 81/135/15 68/134/15
f 70/138/15 83/139/15 82/137/15 69/136/15
f 71/140/15 84/141/15 83/139/15 70/138/15
f 72/142/15 85/143/15 84/141/15 71/140/15
f 73/125/15 86/124/15 85/143/15 72/142/15
f 92/144/15 94/145/15 95/146/15 96/147/15 97/148/15 98/149/15 99/150/15 100/151/15 101/152/15 102/153/15 103/154/15 104/155/15 93/156/15
f 83/157/16 96/158/16 95/159/16 82/160/16
f 84/161/17 97/162/17 96/158/17 83/157/17
f 85/163/18 98/164/18 97/162/18 84/161/18
f 86/165/19 99/166/19 98/167/19 85/168/19
f 90/169/20 103/170/20 102/171/20 89/172/20
f 87/173/21 100/174/21 99/166/21 86/165/21
f 91/175/22 104/176/22 103/170/22 90/169/22
f 79/177/23 92/178/23 93/179/23 80/180/23
f 88/181/24 101/182/24 100/174/24 87/173/24
f 80/183/25 93/184/25 104/176/25 91/175/25
f 81/185/26 94/186/26 92/178/26 79/177/26
f 82/160/27 95/159/27 94/186/27 81/185/27
usemtl Material.001
f 105/10/1 141/187/1 127/188/1 10/11/1
f 11/4/1 128/189/1 135/190/1 111/5/1
f 3/191/14 16/192/14 17/193/14 4/194/14
f 4/194/3 17/193/3 18/195/3 5/196/3
f 5/196/4 18/195/4 19/197/4 6/198/4
f 6/198/5 19/197/5 20/199/5 7/200/5
f 7/201/6 20/202/6 21/203/6 8/204/6
f 11/205/7 24/206/7 25/207/7 12/208/7
f 8/204/8 21/203/8 22/209/8 9/210/8
f 12/208/9 25/207/9 26/211/9 13/212/9
f 1/213/10 14/214/10 15/215/10 2/216/10
f 9/210/11 22/209/11 23/217/11 10/218/11
f 13/212/12 26/211/12 14/214/12 1/213/12
f 2/219/13 15/220/13 16/192/13 3/191/13
f 21/221/2 34/222/2 35/223/2 22/224/2
f 25/225/2 38/226/2 39/227/2 26/228/2
f 14/229/2 28/230/2 27/231/2 15/232/2
f 22/224/2 35/223/2 36/233/2 23/234/2
f 26/228/2 39/227/2 28/230/2 14/229/2
f 15/232/2 27/231/2 29/235/2 16/236/2
f 16/236/2 29/235/2 30/237/2 17/238/2
f 17/238/2 30/237/2 31/239/2 18/240/2
f 18/240/2 31/239/2 32/241/2 19/242/2
f 19/242/2 32/241/2 33/243/2 20/244/2
f 20/244/2 33/243/2 34/222/2 21/221/2
f 24/245/2 37/246/2 38/226/2 25/225/2
f 4/194/3 5/196/3 122/247/3 121/248/3
f 3/191/14 4/194/14 121/248/14 120/249/14
f 2/219/13 3/191/13 120/249/13 118/250/13
f 112/251/19 110/252/19 134/253/19 136/254/19
f 1/213/10 2/216/10 118/255/10 119/256/10
f 113/257/20 111/258/20 135/259/20 137/260/20
f 107/261/27 106/262/27 142/263/27 131/264/27
f 114/265/21 112/251/21 136/254/21 138/266/21
f 115/267/22 113/257/22 137/260/22 139/268/22
f 13/212/12 1/213/12 119/256/12 130/269/12
f 108/270/28 107/261/28 131/264/28 132/271/28
f 120/272/15 142/273/15 140/274/15 118/275/15
f 119/276/15 143/277/15 139/278/15 130/279/15
f 127/280/15 141/281/15 138/282/15 126/283/15
f 118/275/15 140/274/15 143/277/15 119/276/15
f 130/279/15 139/278/15 137/284/15 129/285/15
f 126/283/15 138/282/15 136/286/15 125/287/15
f 129/285/15 137/284/15 135/288/15 128/289/15
f 125/287/15 136/286/15 134/290/15 124/291/15
f 124/291/15 134/290/15 133/292/15 123/293/15
f 123/293/15 133/292/15 132/294/15 122/295/15
f 122/295/15 132/294/15 131/296/15 121/297/15
f 121/297/15 131/296/15 142/273/15 120/272/15
f 110/298/18 109/299/18 133/300/18 134/301/18
f 5/196/4 6/198/4 123/302/4 122/247/4
f 6/198/5 7/200/5 124/303/5 123/302/5
f 106/262/26 117/304/26 140/305/26 142/263/26
f 116/306/25 115/267/25 139/268/25 143/307/25
f 7/201/6 8/204/6 125/308/6 124/309/6
f 109/299/17 108/270/17 132/271/17 133/300/17
f 8/204/8 9/210/8 126/310/8 125/308/8
f 105/311/24 114/265/24 138/266/24 141/312/24
f 11/205/7 12/208/7 129/313/7 128/314/7
f 9/210/11 10/218/11 127/315/11 126/310/11
f 12/208/9 13/212/9 130/269/9 129/313/9
f 117/304/23 116/306/23 143/307/23 140/305/23
