# Blender v2.90.0 OBJ File: 'enemy 3.blend'
# www.blender.org
mtllib particle2.mtl
o Particle_2_Cube.008
v -0.060588 0.230332 0.243196
v -0.060588 0.230332 -0.024154
v -0.060588 0.037797 0.243196
v -0.060588 -0.037017 0.168381
v -0.060588 -0.037017 0.141054
v -0.060588 0.153878 -0.024154
v 0.016222 0.230332 -0.024154
v 0.016222 0.230332 0.243196
v 0.016222 -0.037017 0.168381
v 0.016222 0.037797 0.243196
v 0.016222 0.153878 -0.024154
v 0.016222 -0.037017 0.141054
v 0.016222 0.090178 -0.033750
v 0.016222 -0.037372 0.076636
v 0.016222 -0.038801 -0.182785
v 0.016222 -0.166352 -0.072398
v 0.026431 0.090178 -0.033750
v 0.037969 0.080451 -0.044990
v 0.037969 -0.047100 0.065396
v 0.026431 -0.037372 0.076636
v 0.037969 -0.029073 -0.171544
v 0.026431 -0.038801 -0.182785
v 0.026431 -0.166352 -0.072398
v 0.037969 -0.156624 -0.061158
v -0.060588 -0.213195 -0.062517
v 0.016222 -0.038952 -0.210244
v 0.016222 -0.214205 -0.063684
v 0.016222 -0.020515 -0.225663
v 0.016222 -0.198072 -0.077177
v -0.060588 -0.014631 -0.218863
vt 0.752191 0.860350
vt 0.752191 0.953021
vt 0.742600 0.953021
vt 0.742600 0.860350
vt 0.152340 0.859372
vt 0.152340 0.967651
vt 0.142749 0.967651
vt 0.131910 0.959485
vt 0.131910 0.867538
vt 0.142749 0.859372
vt 0.953450 0.535164
vt 0.953450 0.643444
vt 0.943860 0.643444
vt 0.933021 0.635277
vt 0.933021 0.543331
vt 0.943860 0.535164
vt 0.860868 0.010800
vt 0.983861 0.010800
vt 0.983861 0.132398
vt 0.860868 0.132398
vt 0.860868 0.000000
vt 0.983861 0.000000
vt 0.983861 0.143199
vt 0.860868 0.143199
vt 0.393491 0.855001
vt 0.393491 0.947672
vt 0.383900 0.947672
vt 0.383900 0.855001
vt 0.248706 0.086537
vt 0.359003 0.000000
vt 0.479594 0.152611
vt 0.435796 0.186974
vt 0.251920 0.178469
vt 0.239593 0.162869
vt 0.232742 0.089738
vt 0.239593 0.166305
vt 0.226811 0.181536
vt 0.042763 0.184638
vt 0.000000 0.149003
vt 0.125053 0.000000
vt 0.399142 0.542463
vt 0.399142 0.522609
vt 0.471296 0.522609
vt 0.471296 0.542463
vt 0.427090 0.373858
vt 0.242817 0.373858
vt 0.399142 0.596819
vt 0.471296 0.596819
vt 0.638311 0.932247
vt 0.582566 0.932247
vt 0.582566 0.860350
vt 0.638311 0.860350
vt 0.383900 0.855001
vt 0.383900 0.994886
vt 0.311747 0.994886
vt 0.311747 0.855001
vt 0.399143 0.791059
vt 0.399142 0.596819
vt 0.471296 0.596819
vt 0.471296 0.791059
vt 0.927847 0.143199
vt 1.000000 0.143199
vt 1.000000 0.289603
vt 0.927847 0.284663
vt 0.399143 0.374706
vt 0.471296 0.373858
vt 0.230150 0.378229
vt 0.214815 0.378229
vt 0.199309 0.360781
vt 0.196878 0.217603
vt 0.073903 0.219676
vt 0.063573 0.378229
vt 0.046049 0.378229
vt 0.076333 0.362854
vt 0.311747 0.859277
vt 0.311747 0.872672
vt 0.311747 0.988279
vt 0.311747 1.000000
vt 0.239593 0.999266
vt 0.239593 0.855001
vn 0.0000 -0.6544 -0.7561
vn 0.0000 0.7561 -0.6544
vn -0.0000 -0.7561 0.6544
vn 1.0000 0.0000 0.0000
vn 0.7900 0.4012 0.4636
vn 0.7900 -0.4012 -0.4636
vn 0.0000 0.6544 0.7561
vn -1.0000 0.0000 0.0000
vn 0.0000 -1.0000 0.0000
vn 0.0000 -0.7071 0.7071
vn 0.0000 0.0000 -1.0000
vn 0.0000 0.0000 1.0000
vn 0.0000 1.0000 0.0000
vn -0.0684 -0.6287 -0.7747
usemtl Robot_base
s off
f 16/1/1 15/2/1 22/3/1 23/4/1
f 15/5/2 13/6/2 17/7/2 18/8/2 21/9/2 22/10/2
f 14/11/3 16/12/3 23/13/3 24/14/3 19/15/3 20/16/3
f 18/17/4 19/18/4 24/19/4 21/20/4
f 17/21/5 20/22/5 19/18/5 18/17/5
f 21/20/6 24/19/6 23/23/6 22/24/6
f 13/25/7 14/26/7 20/27/7 17/28/7
usemtl Material
f 3/29/8 1/30/8 2/31/8 6/32/8 5/33/8 4/34/8
f 10/35/4 9/36/4 12/37/4 11/38/4 7/39/4 8/40/4
f 4/41/9 5/42/9 12/43/9 9/44/9
f 5/33/8 6/32/8 30/45/8 25/46/8
f 3/47/10 4/41/10 9/44/10 10/48/10
f 6/49/11 2/50/11 7/51/11 11/52/11
f 1/53/12 3/54/12 10/55/12 8/56/12
f 2/57/13 1/58/13 8/59/13 7/60/13
f 6/61/2 11/62/2 28/63/2 30/64/2
f 12/43/3 5/42/3 25/65/3 27/66/3
f 12/37/4 27/67/4 29/68/4 16/69/4 14/70/4
f 11/38/4 12/37/4 14/70/4 13/71/4
f 26/72/4 28/73/4 11/38/4 13/71/4 15/74/4
f 29/68/4 26/72/4 15/74/4 16/69/4
f 28/75/14 26/76/14 29/77/14 27/78/14 25/79/14 30/80/14
