# Blender v2.90.0 OBJ File: 'enemy 3.blend'
# www.blender.org
mtllib particle1.mtl
o Particle_1_Cube.011
v 0.033309 -0.053100 -0.249503
v 0.010453 0.061805 -0.249503
v 0.033309 -0.053100 -0.287543
v 0.010453 0.061805 -0.287543
v -0.012185 -0.053100 -0.287543
v -0.031578 0.044395 -0.287543
v -0.012185 -0.053100 -0.249562
v -0.031578 0.044395 -0.249562
v 0.010453 0.061805 0.623792
v 0.033309 -0.053100 0.450358
v -0.031578 0.044395 0.623792
v -0.012185 -0.053100 0.450358
vt 0.124259 0.859188
vt 0.124259 0.774070
vt 0.151996 0.774070
vt 0.151996 0.859188
vt 0.828334 0.003415
vt 0.860868 0.000000
vt 0.860868 0.454762
vt 0.828334 0.458177
vt 0.391545 0.773190
vt 0.391545 0.845411
vt 0.363853 0.845411
vt 0.363853 0.773190
vt 0.860868 0.606725
vt 0.828334 0.603310
vt 0.565016 0.662121
vt 0.479595 0.662122
vt 0.479594 0.000000
vt 0.565016 0.126007
vt 0.795163 0.662121
vt 0.722684 0.662121
vt 0.722684 0.126007
vt 0.795163 0.000000
vt 0.795163 0.000000
vt 0.828334 0.000000
vt 0.828334 0.662122
vt 0.795163 0.662122
vt 0.363853 0.694520
vt 0.396387 0.688072
vt 0.396387 0.773190
vt 0.363853 0.766742
vn -0.9808 -0.1951 0.0000
vn 0.0000 -1.0000 0.0000
vn 0.9808 0.1951 0.0000
vn 0.1655 -0.8320 0.5296
vn -0.3827 0.9239 0.0000
vn 0.0000 0.0000 -1.0000
usemtl blades
s off
f 1/1/1 2/2/1 4/3/1 3/4/1
f 5/5/2 3/6/2 10/7/2 12/8/2
f 5/9/3 6/10/3 8/11/3 7/12/3
f 10/7/4 9/13/4 11/14/4 12/8/4
f 3/15/3 4/16/3 9/17/3 10/18/3
f 6/19/1 5/20/1 12/21/1 11/22/1
f 4/23/5 6/24/5 11/25/5 9/26/5
f 6/27/6 4/28/6 3/29/6 5/30/6
