# Blender v2.90.0 OBJ File: 'object test.blend'
# www.blender.org
mtllib Rubble_Pile.mtl
o Rubble_Plane
v -0.969448 -0.097114 1.020113
v 1.025620 -0.097114 1.018423
v -0.976873 -0.097114 -0.970272
v 1.012836 -0.097114 -0.972494
v -0.981724 -0.097114 -0.674339
v -0.984869 -0.097114 -0.390424
v -0.976816 -0.097114 -0.119801
v -0.988981 -0.097114 0.188457
v -0.970926 -0.097114 0.421991
v -0.968689 -0.097114 0.728925
v -0.675880 -0.097114 0.967360
v -0.402458 -0.097114 0.989484
v -0.138208 -0.097114 0.968364
v 0.154751 -0.097114 0.974993
v 0.450346 -0.097114 1.018467
v 0.734272 -0.097114 1.014853
v 1.015450 -0.097114 0.709239
v 1.000071 -0.097114 0.412920
v 1.000923 -0.097114 0.141133
v 0.980595 -0.097114 -0.128491
v 1.015532 -0.097114 -0.409595
v 0.977619 -0.097114 -0.685743
v 0.733824 -0.097114 -0.972691
v 0.447956 -0.097114 -0.967483
v 0.121164 -0.097114 -0.965786
v -0.157715 -0.097114 -0.953624
v -0.420942 -0.097114 -0.952312
v -0.697054 -0.097114 -0.966646
v -0.689608 -0.106587 0.722322
v -0.677145 0.012150 0.366570
v -0.707870 0.007246 0.180879
v -0.691286 -0.101022 -0.130775
v -0.714083 -0.001248 -0.389109
v -0.708471 -0.103467 -0.669439
v -0.418535 0.018670 0.686257
v -0.427906 0.130577 0.415323
v -0.410439 0.202224 0.047837
v -0.407650 0.013479 -0.168011
v -0.433861 0.065357 -0.410920
v -0.420122 -0.112454 -0.675433
v -0.122164 0.240952 0.566023
v -0.125622 0.359749 0.233602
v -0.132658 0.231380 0.038589
v -0.166689 0.251468 -0.121306
v -0.182671 0.145432 -0.361015
v -0.156679 -0.015263 -0.665568
v 0.152996 -0.001404 0.721194
v 0.140968 0.099719 0.412187
v 0.101128 0.184592 0.140808
v 0.130022 0.021781 -0.116721
v 0.125231 0.026884 -0.364666
v 0.114969 -0.008474 -0.678527
v 0.434879 0.019334 0.667716
v 0.371050 0.186010 0.357684
v 0.407145 0.210152 0.071385
v 0.384871 0.212204 -0.169928
v 0.373350 0.131345 -0.417792
v 0.426285 -0.049097 -0.663733
v 0.698708 0.027433 0.645322
v 0.700216 0.042406 0.404373
v 0.703701 0.073776 0.126271
v 0.695261 0.034156 -0.166558
v 0.649054 0.108490 -0.402085
v 0.623369 0.161226 -0.677748
v -0.273628 0.054441 -0.598765
v -0.398326 0.145101 -0.482278
v -0.246547 -0.002667 -0.525329
v -0.371245 0.087992 -0.408842
v -0.342509 -0.009275 -0.622913
v -0.467207 0.081385 -0.506425
v -0.315429 -0.066383 -0.549477
v -0.440126 0.024277 -0.432990
v 0.439199 0.047691 0.194097
v 0.341213 0.211362 0.163296
v 0.477643 0.054012 0.105387
v 0.379657 0.217683 0.074586
v 0.513331 0.098804 0.229866
v 0.415345 0.262474 0.199065
v 0.551775 0.105125 0.141155
v 0.453789 0.268796 0.110354
v -0.727934 -0.095427 -0.213081
v -0.385244 0.251388 0.239389
v -0.674276 -0.056360 -0.283665
v -0.331585 0.290455 0.168805
v -0.713246 -0.112314 -0.211261
v -0.370555 0.234501 0.241208
v -0.659588 -0.073248 -0.281845
v -0.316897 0.273567 0.170624
v 0.103408 0.050289 -0.146995
v 0.260337 0.147815 -0.203565
v 0.051861 0.092393 -0.217405
v 0.208790 0.189918 -0.273975
v 0.126619 -0.021984 -0.207205
v 0.283548 0.075541 -0.263775
v 0.075072 0.020119 -0.277616
v 0.232000 0.117644 -0.334185
vt 0.702694 0.471264
vt 0.847775 0.473924
vt 0.857175 0.569267
vt 0.782661 0.582806
vt 0.093526 0.002849
vt 0.095771 0.096659
vt 0.001221 0.096370
vt 0.000000 0.000000
vt 0.094835 0.195367
vt 0.005825 0.191627
vt 0.088494 0.291070
vt 0.005481 0.282210
vt 0.395852 0.834869
vt 0.313156 0.817316
vt 0.311946 0.719626
vt 0.395852 0.738761
vt 0.311946 0.825711
vt 0.219386 0.825711
vt 0.222237 0.719626
vt 0.310689 0.721029
vt 0.719159 0.703945
vt 0.629049 0.723678
vt 0.631375 0.582806
vt 0.715255 0.608419
vt 0.629049 0.032945
vt 0.612455 0.133186
vt 0.535938 0.124245
vt 0.537021 0.028760
vt 0.411867 0.129058
vt 0.440017 0.023304
vt 0.353653 0.115401
vt 0.366205 0.013524
vt 0.265777 0.110921
vt 0.268785 0.013004
vt 0.174344 0.104134
vt 0.183255 0.006101
vt 0.619521 0.227636
vt 0.512332 0.223280
vt 0.415730 0.221530
vt 0.292569 0.225526
vt 0.000000 0.939239
vt 0.009640 0.811901
vt 0.103515 0.826388
vt 0.103515 0.933614
vt 0.242858 0.213723
vt 0.160995 0.203595
vt 0.219386 0.724848
vt 0.207711 0.823050
vt 0.103515 0.808452
vt 0.125865 0.719626
vt 0.612917 0.318269
vt 0.452618 0.334604
vt 0.335910 0.334297
vt 0.286862 0.322459
vt 0.019014 0.719626
vt 0.055157 0.719794
vt 0.234349 0.309312
vt 0.168983 0.294833
vt 0.219386 0.912056
vt 0.107076 0.905084
vt 0.615090 0.419208
vt 0.525495 0.419529
vt 0.880104 0.052260
vt 1.000000 0.000000
vt 0.978849 0.098931
vt 0.857906 0.157556
vt 0.953256 0.187632
vt 0.882482 0.231881
vt 0.994555 0.283315
vt 0.870474 0.286567
vt 0.993823 0.367151
vt 0.888559 0.375110
vt 1.000000 0.476094
vt 0.928962 0.486730
vt 0.628909 0.521616
vt 0.506635 0.516777
vt 0.392293 0.498433
vt 0.417917 0.415743
vt 0.299453 0.507697
vt 0.323817 0.402143
vt 0.791725 1.000000
vt 0.697004 0.959718
vt 0.699340 0.894866
vt 0.803974 0.894731
vt 0.711079 0.811400
vt 0.800614 0.827141
vt 0.803974 0.733926
vt 0.627843 0.619289
vt 0.498834 0.607652
vt 0.421217 0.605244
vt 0.630486 0.131394
vt 0.746453 0.109182
vt 0.741249 0.201059
vt 0.635403 0.224948
vt 0.746730 0.303184
vt 0.629049 0.307554
vt 0.719862 0.380215
vt 0.641766 0.397334
vt 0.634004 0.788087
vt 0.629049 0.719626
vt 0.531331 0.711405
vt 0.748980 0.028701
vt 0.857906 0.000000
vt 0.853793 0.101024
vt 0.854015 0.192963
vt 0.848581 0.285192
vt 0.857906 0.378638
vt 0.599656 0.786202
vt 0.599656 0.719626
vt 0.627692 0.721982
vt 0.627692 0.788558
vt 0.440724 0.786801
vt 0.440724 0.719626
vt 0.472475 0.719884
vt 0.472475 0.787059
vt 0.504531 0.786255
vt 0.504531 0.842246
vt 0.478339 0.853033
vt 0.478339 0.797041
vt 0.536579 0.719833
vt 0.536579 0.785457
vt 0.504531 0.785250
vt 0.504531 0.719626
vt 0.568342 0.821608
vt 0.599425 0.821760
vt 0.599425 0.855489
vt 0.568342 0.855337
vt 0.420659 0.856138
vt 0.395852 0.864183
vt 0.395852 0.832931
vt 0.420659 0.824886
vt 0.415034 0.722971
vt 0.415034 0.789732
vt 0.395852 0.786386
vt 0.395852 0.719626
vt 0.440724 0.837501
vt 0.440724 0.787059
vt 0.471444 0.793446
vt 0.471444 0.843888
vt 0.531476 0.785457
vt 0.531476 0.846793
vt 0.504531 0.854304
vt 0.504531 0.792968
vt 0.440724 0.720473
vt 0.440724 0.787233
vt 0.625569 0.830532
vt 0.625569 0.862515
vt 0.599656 0.856199
vt 0.599656 0.824216
vt 0.599656 0.824216
vt 0.599656 0.790898
vt 0.628402 0.788558
vt 0.628402 0.821876
vt 0.536579 0.850225
vt 0.536579 0.785417
vt 0.567281 0.788026
vt 0.567281 0.852834
vt 0.568586 0.787176
vt 0.568586 0.721337
vt 0.599656 0.719626
vt 0.599656 0.785465
vt 0.536579 0.784950
vt 0.536579 0.719626
vt 0.568586 0.720094
vt 0.568586 0.785417
vt 0.504531 0.719717
vt 0.504531 0.786255
vt 0.472475 0.786164
vt 0.472475 0.719626
vt 0.568342 0.821608
vt 0.568342 0.788242
vt 0.599656 0.787176
vt 0.599656 0.820542
vt 0.395852 0.789732
vt 0.426351 0.791877
vt 0.426351 0.824886
vt 0.395852 0.822740
vt 0.862475 0.582806
vt 0.862475 0.807130
vt 0.834983 0.811444
vt 0.834983 0.587120
vt 0.877025 0.582806
vt 0.877025 0.776999
vt 0.869888 0.778186
vt 0.869888 0.583993
vt 0.807981 0.780453
vt 0.807981 0.582806
vt 0.834983 0.592286
vt 0.834983 0.789932
vt 0.869888 0.582806
vt 0.869888 0.807064
vt 0.862475 0.807197
vt 0.862475 0.582940
vt 0.803974 0.783885
vt 0.830977 0.793364
vt 0.532000 0.785457
vt 0.536579 0.785973
vt 0.536579 0.819588
vt 0.532000 0.819072
vn 0.0191 0.9612 -0.2752
vn 0.4564 0.8776 -0.1463
vn 0.3567 0.8836 -0.3031
vn 0.0654 0.9110 -0.4071
vn -0.0736 0.9937 -0.0841
vn -0.0630 0.9861 -0.1540
vn 0.0133 0.9996 0.0246
vn 0.0113 0.9998 0.0110
vn -0.1265 0.9578 -0.2582
vn -0.0806 0.9960 -0.0372
vn -0.0628 0.9467 -0.3160
vn -0.1013 0.9742 -0.2017
vn 0.0220 0.9559 -0.2928
vn 0.0222 0.9673 -0.2525
vn -0.1948 0.9202 -0.3394
vn -0.1666 0.9120 -0.3748
vn 0.0146 0.9997 -0.0180
vn -0.1019 0.9906 0.0912
vn -0.1825 0.9698 0.1619
vn -0.0675 0.9948 0.0764
vn -0.3680 0.9165 0.1567
vn -0.2417 0.9644 0.1075
vn -0.3934 0.9140 -0.0985
vn -0.2642 0.9616 -0.0742
vn -0.3020 0.9523 -0.0434
vn -0.1703 0.9854 0.0023
vn -0.1828 0.9826 -0.0312
vn -0.1600 0.9871 0.0052
vn -0.2072 0.9033 0.3756
vn -0.3106 0.8768 0.3670
vn -0.4530 0.8666 0.2089
vn -0.4682 0.8563 -0.2180
vn -0.4592 0.8808 -0.1155
vn -0.2940 0.9318 -0.2127
vn -0.0064 0.8368 0.5475
vn 0.0537 0.9119 0.4069
vn 0.0697 0.9968 0.0389
vn 0.0942 0.9628 -0.2533
vn 0.0007 0.9629 -0.2699
vn -0.0515 0.9626 -0.2658
vn 0.0779 0.8954 0.4383
vn 0.1255 0.8967 0.4244
vn 0.2298 0.9392 0.2550
vn 0.1926 0.9727 -0.1296
vn 0.0004 0.9686 -0.2487
vn -0.0086 0.9664 -0.2568
vn -0.0125 0.9460 0.3240
vn 0.0212 0.9412 0.3372
vn 0.0688 0.9669 0.2458
vn 0.0983 0.9942 -0.0429
vn -0.0394 0.9879 -0.1502
vn -0.1798 0.9615 -0.2077
vn 0.0964 0.9662 0.2388
vn 0.2051 0.9587 0.1970
vn 0.3609 0.9243 0.1236
vn 0.4443 0.8958 0.0041
vn 0.4353 0.9001 -0.0153
vn 0.2760 0.9602 -0.0432
vn 0.1802 0.9695 0.1658
vn 0.2732 0.9565 0.1023
vn 0.4248 0.9046 0.0343
vn 0.4629 0.8863 -0.0125
vn 0.4610 0.8873 0.0098
vn 0.4981 0.8644 0.0674
vn 0.7109 0.6576 0.2492
vn 0.2795 -0.5894 0.7579
vn -0.7109 -0.6576 -0.2492
vn -0.2795 0.5894 -0.7579
vn 0.6453 -0.4692 -0.6028
vn -0.6453 0.4692 0.6028
vn -0.7651 -0.5275 -0.3692
vn 0.3968 0.0652 -0.9156
vn 0.7651 0.5275 0.3692
vn -0.3968 -0.0652 0.9156
vn 0.5071 -0.8470 0.1594
vn -0.5071 0.8470 -0.1594
vn -0.2396 0.7459 0.6214
vn -0.5320 0.4346 -0.7267
vn 0.2396 -0.7459 -0.6214
vn 0.5320 -0.4346 0.7267
vn -0.8121 -0.5047 0.2928
vn 0.8121 0.5047 -0.2928
vn -0.6541 0.7520 -0.0810
vn 0.5538 0.4032 -0.7285
vn 0.6541 -0.7520 0.0810
vn -0.5538 -0.4032 0.7285
vn -0.5152 -0.5214 -0.6802
vn 0.5152 0.5214 0.6802
usemtl Rubble
s 1
f 64/1/1 22/2/2 4/3/3 23/4/4
f 5/5/5 34/6/6 28/7/7 3/8/8
f 34/6/6 40/9/9 27/10/10 28/7/7
f 40/9/9 46/11/11 26/12/12 27/10/10
f 46/13/11 52/14/13 25/15/14 26/16/12
f 52/17/13 58/18/15 24/19/16 25/20/14
f 58/21/15 64/22/1 23/23/4 24/24/16
f 1/25/17 11/26/18 29/27/19 10/28/20
f 10/28/20 29/27/19 30/29/21 9/30/22
f 9/30/22 30/29/21 31/31/23 8/32/24
f 8/32/24 31/31/23 32/33/25 7/34/26
f 7/34/26 32/33/25 33/35/27 6/36/28
f 6/36/28 33/35/27 34/6/6 5/5/5
f 11/26/18 12/37/29 35/38/30 29/27/19
f 29/27/19 35/38/30 36/39/31 30/29/21
f 30/29/21 36/39/31 37/40/32 31/31/23
f 31/41/23 37/42/32 38/43/33 32/44/25
f 32/33/25 38/45/33 39/46/34 33/35/27
f 33/47/27 39/48/34 40/49/9 34/50/6
f 12/37/29 13/51/35 41/52/36 35/38/30
f 35/38/30 41/52/36 42/53/37 36/39/31
f 36/39/31 42/53/37 43/54/38 37/40/32
f 37/42/32 43/55/38 44/56/39 38/43/33
f 38/45/33 44/57/39 45/58/40 39/46/34
f 39/48/34 45/59/40 46/60/11 40/49/9
f 13/51/35 14/61/41 47/62/42 41/52/36
f 41/63/36 47/64/42 48/65/43 42/66/37
f 42/66/37 48/65/43 49/67/44 43/68/38
f 43/68/38 49/67/44 50/69/45 44/70/39
f 44/70/39 50/69/45 51/71/46 45/72/40
f 45/72/40 51/71/46 52/73/13 46/74/11
f 14/61/41 15/75/47 53/76/48 47/62/42
f 47/62/42 53/76/48 54/77/49 48/78/43
f 48/78/43 54/77/49 55/79/50 49/80/44
f 49/81/44 55/82/50 56/83/51 50/84/45
f 50/84/45 56/83/51 57/85/52 51/86/46
f 51/86/46 57/85/52 58/21/15 52/87/13
f 15/75/47 16/88/53 59/89/54 53/76/48
f 53/76/48 59/89/54 60/90/55 54/77/49
f 54/91/49 60/92/55 61/93/56 55/94/50
f 55/94/50 61/93/56 62/95/57 56/96/51
f 56/96/51 62/95/57 63/97/58 57/98/52
f 57/85/52 63/99/58 64/22/1 58/21/15
f 16/88/53 2/100/59 17/101/60 59/89/54
f 59/102/54 17/103/60 18/104/61 60/92/55
f 60/92/55 18/104/61 19/105/62 61/93/56
f 61/93/56 19/105/62 20/106/63 62/95/57
f 62/95/57 20/106/63 21/107/64 63/97/58
f 63/97/58 21/107/64 22/2/2 64/1/1
usemtl Alt_Concrete.004
s off
f 65/108/65 66/109/65 68/110/65 67/111/65
f 67/112/66 68/113/66 72/114/66 71/115/66
f 71/116/67 72/117/67 70/118/67 69/119/67
f 69/120/68 70/121/68 66/122/68 65/123/68
f 67/124/69 71/125/69 69/126/69 65/127/69
f 72/128/70 68/129/70 66/130/70 70/131/70
f 73/132/71 74/133/71 76/134/71 75/135/71
f 75/136/72 76/137/72 80/138/72 79/139/72
f 79/140/73 80/141/73 78/142/73 77/143/73
f 77/144/74 78/145/74 74/133/74 73/132/74
f 75/146/75 79/147/75 77/148/75 73/149/75
f 80/150/76 76/151/76 74/152/76 78/153/76
f 89/154/77 90/155/77 92/156/77 91/157/77
f 91/158/78 92/159/78 96/160/78 95/161/78
f 95/162/79 96/163/79 94/164/79 93/165/79
f 93/166/80 94/167/80 90/168/80 89/169/80
f 91/170/81 95/171/81 93/172/81 89/173/81
f 96/174/82 92/175/82 90/176/82 94/177/82
usemtl Metal.006
f 81/178/83 82/179/83 84/180/83 83/181/83
f 83/182/84 84/183/84 88/184/84 87/185/84
f 87/186/85 88/187/85 86/188/85 85/189/85
f 85/190/86 86/191/86 82/192/86 81/193/86
f 83/194/87 87/186/87 85/189/87 81/195/87
f 88/196/88 84/197/88 82/198/88 86/199/88
